<?xml version="1.0" encoding="UTF-8" standalone="no"?>
<!DOCTYPE svg PUBLIC "-//W3C//DTD SVG 1.1//EN"
 "http://www.w3.org/Graphics/SVG/1.1/DTD/svg11.dtd">
<!-- Generated by graphviz version 5.0.0 (20220707.1540)
 -->
<!-- Title: StorageDiagram Pages: 1 -->
<svg width="996pt" height="199pt"
 viewBox="0.00 0.00 996.15 199.40" xmlns="http://www.w3.org/2000/svg" xmlns:xlink="http://www.w3.org/1999/xlink">
<g id="graph0" class="graph" transform="scale(1 1) rotate(0) translate(4 195.4)">
<title>StorageDiagram</title>
<polygon fill="white" stroke="transparent" points="-4,4 -4,-195.4 992.15,-195.4 992.15,4 -4,4"/>
<!-- 1 -->
<g id="node1" class="node">
<title>1</title>
<polygon fill="#f2f2f2" stroke="black" points="0,-0.5 0,-190.9 988.15,-190.9 988.15,-0.5 0,-0.5"/>
<text text-anchor="middle" x="494.08" y="-174.3" font-family="Courier New" font-size="14.00">DODOApproveProxy &lt;&lt;Contract&gt;&gt;</text>
<text text-anchor="middle" x="494.08" y="-157.5" font-family="Courier New" font-size="14.00">0x335aC99bb3E51BDbF22025f092Ebc1Cf2c5cC619</text>
<polyline fill="none" stroke="black" points="0,-149.3 988.15,-149.3 "/>
<text text-anchor="middle" x="24.8" y="-132.7" font-family="Courier New" font-size="14.00">slot</text>
<polyline fill="none" stroke="black" points="0,-124.5 49.61,-124.5 "/>
<text text-anchor="middle" x="24.8" y="-107.9" font-family="Courier New" font-size="14.00">0</text>
<polyline fill="none" stroke="black" points="0,-99.7 49.61,-99.7 "/>
<text text-anchor="middle" x="24.8" y="-83.1" font-family="Courier New" font-size="14.00">1</text>
<polyline fill="none" stroke="black" points="0,-74.9 49.61,-74.9 "/>
<text text-anchor="middle" x="24.8" y="-58.3" font-family="Courier New" font-size="14.00">2</text>
<polyline fill="none" stroke="black" points="0,-50.1 49.61,-50.1 "/>
<text text-anchor="middle" x="24.8" y="-33.5" font-family="Courier New" font-size="14.00">3</text>
<polyline fill="none" stroke="black" points="0,-25.3 49.61,-25.3 "/>
<text text-anchor="middle" x="24.8" y="-8.7" font-family="Courier New" font-size="14.00">4</text>
<polyline fill="none" stroke="black" points="49.61,-0.5 49.61,-149.3 "/>
<text text-anchor="middle" x="518.88" y="-132.7" font-family="Courier New" font-size="14.00">type: &lt;inherited contract&gt;.variable (bytes)</text>
<polyline fill="none" stroke="black" points="49.61,-124.5 988.15,-124.5 "/>
<text text-anchor="middle" x="229.32" y="-107.9" font-family="Courier New" font-size="14.00">unallocated (12)</text>
<polyline fill="none" stroke="black" points="409.03,-99.7 409.03,-124.5 "/>
<text text-anchor="middle" x="698.46" y="-107.9" font-family="Courier New" font-size="14.00">address: InitializableOwnable._OWNER_ (20)</text>
<polyline fill="none" stroke="black" points="49.61,-99.7 988.15,-99.7 "/>
<text text-anchor="middle" x="124.82" y="-83.1" font-family="Courier New" font-size="14.00">unallocated (11)</text>
<polyline fill="none" stroke="black" points="200.03,-74.9 200.03,-99.7 "/>
<text text-anchor="middle" x="392.86" y="-83.1" font-family="Courier New" font-size="14.00">bool: InitializableOwnable._INITIALIZED_ (1)</text>
<polyline fill="none" stroke="black" points="585.69,-74.9 585.69,-99.7 "/>
<text text-anchor="middle" x="786.92" y="-83.1" font-family="Courier New" font-size="14.00">address: InitializableOwnable._NEW_OWNER_ (20)</text>
<polyline fill="none" stroke="black" points="49.61,-74.9 988.15,-74.9 "/>
<text text-anchor="middle" x="518.54" y="-58.3" font-family="Courier New" font-size="14.00">mapping(address=&gt;bool): _IS_ALLOWED_PROXY_ (32)</text>
<polyline fill="none" stroke="black" points="49.61,-50.1 988.15,-50.1 "/>
<text text-anchor="middle" x="518.42" y="-33.5" font-family="Courier New" font-size="14.00">uint256: _TIMELOCK_ (32)</text>
<polyline fill="none" stroke="black" points="49.61,-25.3 988.15,-25.3 "/>
<text text-anchor="middle" x="237.82" y="-8.7" font-family="Courier New" font-size="14.00">unallocated (12)</text>
<polyline fill="none" stroke="black" points="426.03,-0.5 426.03,-25.3 "/>
<text text-anchor="middle" x="706.65" y="-8.7" font-family="Courier New" font-size="14.00">address: _PENDING_ADD_DODO_PROXY_ (20)</text>
</g>
</g>
</svg>
